# xmcd
#
# Track frame offsets: 
#        150
#        11449
#        22971
#        34807
#        47005
#        58554
#        69902
#        83773
#        99245
#        113441
#        126473
#        139874
#        159279
#        172297
#        181452
#        192552
#        203031
#        215106
#        228547
#
# Disc length: 3202 seconds
#
# Revision: 2
# Processed by: cddbd v1.5.2PL0 Copyright (c) Steve Scherf et al.
# Submitted via: ExactAudioCopy v1.1
#
DISCID=060c8013
DTITLE=Syl Johnson - Syl Johnson:  Complete Mythology (Numero) - Disc 
DTITLE=4
DYEAR=2010
DGENRE=R&B
TTITLE0=One Way Ticket To Nowhere
TTITLE1=Kiss By Kiss
TTITLE2=Thank You Baby
TTITLE3=We Do It Together
TTITLE4=Try My Love
TTITLE5=That's Why
TTITLE6=Get Ready
TTITLE7=The Way You Do The Things You Do
TTITLE8=Annie Got Hot Pants Power (Part 1)
TTITLE9=Wouldn't Change My Lady
TTITLE10=All I Need Is Someone Like You
TTITLE11=Let's Start All Over Again
TTITLE12=Hot Pants Lady
TTITLE13=Wiggle In Your Hips
TTITLE14=Your Love Is Good For Me
TTITLE15=Trying To Get To You
TTITLE16=Soul Strokes
TTITLE17=Annie Got Hot Pants Power (Part 2)
TTITLE18=Soul Heaven
EXTD=
EXTT0=
EXTT1=
EXTT2=
EXTT3=
EXTT4=
EXTT5=
EXTT6=
EXTT7=
EXTT8=
EXTT9=
EXTT10=
EXTT11=
EXTT12=
EXTT13=
EXTT14=
EXTT15=
EXTT16=
EXTT17=
EXTT18=
PLAYORDER=
